<svg xmlns="http://www.w3.org/2000/svg" xmlns:xlink="http://www.w3.org/1999/xlink" width="1300" zoomAndPan="magnify" viewBox="0 0 974.88 195.000001" height="260" preserveAspectRatio="xMidYMid meet" version="1.0"><defs><g/></defs><g fill="#000000" fill-opacity="1"><g transform="translate(8.852384, 177.251597)"><g><path d="M 73.859375 -23.757812 C 58.183594 -23.113281 24.890625 -24.726562 24.890625 -64.648438 C 24.890625 -95.355469 45.738281 -107.152344 73.859375 -105.699219 L 73.859375 -77.09375 L 98.585938 -77.09375 L 98.585938 -127.839844 C 98.585938 -128.488281 97.941406 -129.296875 96.808594 -129.296875 L 75.800781 -129.296875 C 44.121094 -129.296875 0 -122.023438 0 -64.648438 C 0 -9.375 43.636719 0 75.800781 0 L 96.808594 0 C 97.941406 0 98.585938 -0.808594 98.585938 -1.453125 L 98.585938 -23.757812 Z M 73.859375 -23.757812 "/></g></g></g><g fill="#000000" fill-opacity="1"><g transform="translate(112.449795, 177.251597)"><g><path d="M 74.34375 -64.324219 C 74.34375 -71.113281 69.011719 -76.605469 62.222656 -76.605469 C 55.433594 -76.605469 50.101562 -71.113281 50.101562 -64.324219 C 50.101562 -57.699219 55.433594 -52.203125 62.222656 -52.203125 C 69.011719 -52.203125 74.34375 -57.699219 74.34375 -64.324219 Z M 124.445312 -64.808594 C 124.445312 -96.972656 103.597656 -129.296875 62.386719 -129.296875 C 20.527344 -129.296875 0 -96.972656 0 -64.808594 C 0 -32.484375 20.527344 0 62.386719 0 C 103.597656 0 124.445312 -32.484375 124.445312 -64.808594 Z M 100.203125 -64.324219 C 100.203125 -43.476562 87.4375 -22.625 62.386719 -22.625 C 37.011719 -22.625 24.40625 -43.476562 24.40625 -64.324219 C 24.40625 -85.496094 37.011719 -106.507812 62.386719 -106.507812 C 87.4375 -106.507812 100.203125 -85.496094 100.203125 -64.324219 Z M 100.203125 -64.324219 "/></g></g></g><g fill="#000000" fill-opacity="1"><g transform="translate(243.037519, 177.251597)"><g><path d="M 75.476562 -76.605469 L 24.726562 -76.605469 L 24.726562 -105.859375 L 61.414062 -105.859375 L 61.414062 -129.296875 L 1.777344 -129.296875 C 0.808594 -129.296875 0 -128.488281 0 -127.839844 L 0 -1.453125 C 0 -0.808594 0.808594 0 1.777344 0 L 24.726562 0 L 24.726562 -53.171875 L 75.476562 -53.171875 C 76.445312 -53.171875 77.253906 -53.980469 77.253906 -54.628906 L 77.253906 -75.152344 C 77.253906 -75.960938 76.445312 -76.605469 75.476562 -76.605469 Z M 75.476562 -76.605469 "/></g></g></g><g fill="#000000" fill-opacity="1"><g transform="translate(324.169975, 177.251597)"><g><path d="M 75.476562 -76.605469 L 24.726562 -76.605469 L 24.726562 -105.859375 L 61.414062 -105.859375 L 61.414062 -129.296875 L 1.777344 -129.296875 C 0.808594 -129.296875 0 -128.488281 0 -127.839844 L 0 -1.453125 C 0 -0.808594 0.808594 0 1.777344 0 L 24.726562 0 L 24.726562 -53.171875 L 75.476562 -53.171875 C 76.445312 -53.171875 77.253906 -53.980469 77.253906 -54.628906 L 77.253906 -75.152344 C 77.253906 -75.960938 76.445312 -76.605469 75.476562 -76.605469 Z M 75.476562 -76.605469 "/></g></g></g><g fill="#000000" fill-opacity="1"><g transform="translate(405.30243, 177.251597)"><g><path d="M 61.414062 -24.082031 L 24.726562 -24.082031 L 24.726562 -53.171875 L 75.476562 -53.171875 C 76.445312 -53.171875 77.253906 -53.980469 77.253906 -54.628906 L 77.253906 -75.152344 C 77.253906 -75.960938 76.445312 -76.605469 75.476562 -76.605469 L 24.726562 -76.605469 L 24.726562 -105.859375 L 61.414062 -105.859375 L 61.414062 -129.296875 L 1.777344 -129.296875 C 0.808594 -129.296875 0 -128.488281 0 -127.839844 L 0 -1.453125 C 0 -0.808594 0.808594 0 1.777344 0 L 61.414062 0 Z M 61.414062 -24.082031 "/></g></g></g><g fill="#000000" fill-opacity="1"><g transform="translate(486.434886, 177.251597)"><g><path d="M 61.414062 -24.082031 L 24.726562 -24.082031 L 24.726562 -53.171875 L 75.476562 -53.171875 C 76.445312 -53.171875 77.253906 -53.980469 77.253906 -54.628906 L 77.253906 -75.152344 C 77.253906 -75.960938 76.445312 -76.605469 75.476562 -76.605469 L 24.726562 -76.605469 L 24.726562 -105.859375 L 61.414062 -105.859375 L 61.414062 -129.296875 L 1.777344 -129.296875 C 0.808594 -129.296875 0 -128.488281 0 -127.839844 L 0 -1.453125 C 0 -0.808594 0.808594 0 1.777344 0 L 61.414062 0 Z M 61.414062 -24.082031 "/></g></g></g><g fill="#000000" fill-opacity="1"><g transform="translate(588.234801, 177.510061)"><g><path d="M 26.695312 -82.515625 L 26.695312 -1.457031 C 26.695312 -0.808594 27.34375 0 28.476562 0 L 49.347656 0 C 50.480469 0 51.289062 -0.808594 51.289062 -1.457031 L 51.289062 -82.515625 Z M 1.78125 -107.273438 L 76.046875 -107.273438 C 77.179688 -107.273438 77.824219 -107.917969 77.824219 -108.730469 L 77.824219 -127.984375 C 77.824219 -128.628906 77.179688 -129.4375 76.046875 -129.4375 L 1.78125 -129.4375 C 0.808594 -129.4375 0 -128.628906 0 -127.984375 L 0 -108.730469 C 0 -107.917969 0.808594 -107.273438 1.78125 -107.273438 Z M 1.78125 -107.273438 "/></g></g></g><g fill="#000000" fill-opacity="1"><g transform="translate(669.943078, 177.510061)"><g><path d="M 61.484375 -24.109375 L 24.753906 -24.109375 L 24.753906 -53.230469 L 75.558594 -53.230469 C 76.53125 -53.230469 77.339844 -54.039062 77.339844 -54.6875 L 77.339844 -75.238281 C 77.339844 -76.046875 76.53125 -76.691406 75.558594 -76.691406 L 24.753906 -76.691406 L 24.753906 -105.976562 L 61.484375 -105.976562 L 61.484375 -129.4375 L 1.78125 -129.4375 C 0.808594 -129.4375 0 -128.628906 0 -127.984375 L 0 -1.457031 C 0 -0.808594 0.808594 0 1.78125 0 L 61.484375 0 Z M 61.484375 -24.109375 "/></g></g></g><g fill="#000000" fill-opacity="1"><g transform="translate(751.165958, 177.510061)"><g><path d="M 73.941406 -23.785156 C 58.246094 -23.136719 24.917969 -24.753906 24.917969 -64.71875 C 24.917969 -95.460938 45.789062 -107.273438 73.941406 -105.816406 L 73.941406 -77.179688 L 98.699219 -77.179688 L 98.699219 -127.984375 C 98.699219 -128.628906 98.050781 -129.4375 96.917969 -129.4375 L 75.882812 -129.4375 C 44.171875 -129.4375 0 -122.15625 0 -64.71875 C 0 -9.382812 43.6875 0 75.882812 0 L 96.917969 0 C 98.050781 0 98.699219 -0.808594 98.699219 -1.457031 L 98.699219 -23.785156 Z M 73.941406 -23.785156 "/></g></g></g><g fill="#000000" fill-opacity="1"><g transform="translate(854.87882, 177.510061)"><g><path d="M 24.753906 -73.292969 L 24.753906 -127.984375 C 24.753906 -128.628906 24.109375 -129.4375 22.976562 -129.4375 L 1.78125 -129.4375 C 0.808594 -129.4375 0 -128.628906 0 -127.984375 L 0 -73.292969 Z M 96.753906 -129.4375 L 75.558594 -129.4375 C 74.589844 -129.4375 73.78125 -128.628906 73.78125 -127.984375 L 73.78125 -48.378906 L 24.753906 -48.378906 L 24.753906 -48.539062 L 0 -48.539062 L 0 -1.457031 C 0 -0.808594 0.808594 0 1.78125 0 L 22.976562 0 C 24.109375 0 24.753906 -0.808594 24.753906 -1.457031 L 24.753906 -24.269531 L 73.78125 -24.269531 L 73.78125 -1.457031 C 73.78125 -0.808594 74.589844 0 75.558594 0 L 96.753906 0 C 97.886719 0 98.535156 -0.808594 98.535156 -1.457031 L 98.535156 -127.984375 C 98.535156 -128.628906 97.886719 -129.4375 96.753906 -129.4375 Z M 96.753906 -129.4375 "/></g></g></g></svg>