<svg xmlns="http://www.w3.org/2000/svg" xmlns:xlink="http://www.w3.org/1999/xlink" width="1300" zoomAndPan="magnify" viewBox="0 0 974.88 809.999993" height="1080" preserveAspectRatio="xMidYMid meet" version="1.0"><defs><g/></defs><g fill="#000000" fill-opacity="1"><g transform="translate(18.822518, 362.459127)"><g><path d="M 123.894531 -39.851562 C 97.597656 -38.769531 41.75 -41.480469 41.75 -108.441406 C 41.75 -159.953125 76.722656 -179.746094 123.894531 -177.304688 L 123.894531 -129.320312 L 165.375 -129.320312 L 165.375 -214.445312 C 165.375 -215.53125 164.292969 -216.886719 162.394531 -216.886719 L 127.148438 -216.886719 C 74.011719 -216.886719 0 -204.6875 0 -108.441406 C 0 -15.722656 73.199219 0 127.148438 0 L 162.394531 0 C 164.292969 0 165.375 -1.355469 165.375 -2.441406 L 165.375 -39.851562 Z M 123.894531 -39.851562 "/></g></g></g><g fill="#000000" fill-opacity="1"><g transform="translate(192.602218, 362.459127)"><g><path d="M 124.710938 -107.902344 C 124.710938 -119.289062 115.761719 -128.503906 104.375 -128.503906 C 92.988281 -128.503906 84.042969 -119.289062 84.042969 -107.902344 C 84.042969 -96.785156 92.988281 -87.566406 104.375 -87.566406 C 115.761719 -87.566406 124.710938 -96.785156 124.710938 -107.902344 Z M 208.753906 -108.714844 C 208.753906 -162.664062 173.78125 -216.886719 104.648438 -216.886719 C 34.429688 -216.886719 0 -162.664062 0 -108.714844 C 0 -54.492188 34.429688 0 104.648438 0 C 173.78125 0 208.753906 -54.492188 208.753906 -108.714844 Z M 168.085938 -107.902344 C 168.085938 -72.929688 146.667969 -37.953125 104.648438 -37.953125 C 62.082031 -37.953125 40.9375 -72.929688 40.9375 -107.902344 C 40.9375 -143.414062 62.082031 -178.660156 104.648438 -178.660156 C 146.667969 -178.660156 168.085938 -143.414062 168.085938 -107.902344 Z M 168.085938 -107.902344 "/></g></g></g><g fill="#000000" fill-opacity="1"><g transform="translate(411.656876, 362.459127)"><g><path d="M 126.605469 -128.503906 L 41.480469 -128.503906 L 41.480469 -177.574219 L 103.019531 -177.574219 L 103.019531 -216.886719 L 2.980469 -216.886719 C 1.355469 -216.886719 0 -215.53125 0 -214.445312 L 0 -2.441406 C 0 -1.355469 1.355469 0 2.980469 0 L 41.480469 0 L 41.480469 -89.195312 L 126.605469 -89.195312 C 128.234375 -89.195312 129.589844 -90.550781 129.589844 -91.632812 L 129.589844 -126.066406 C 129.589844 -127.421875 128.234375 -128.503906 126.605469 -128.503906 Z M 126.605469 -128.503906 "/></g></g></g><g fill="#000000" fill-opacity="1"><g transform="translate(547.752687, 362.459127)"><g><path d="M 126.605469 -128.503906 L 41.480469 -128.503906 L 41.480469 -177.574219 L 103.019531 -177.574219 L 103.019531 -216.886719 L 2.980469 -216.886719 C 1.355469 -216.886719 0 -215.53125 0 -214.445312 L 0 -2.441406 C 0 -1.355469 1.355469 0 2.980469 0 L 41.480469 0 L 41.480469 -89.195312 L 126.605469 -89.195312 C 128.234375 -89.195312 129.589844 -90.550781 129.589844 -91.632812 L 129.589844 -126.066406 C 129.589844 -127.421875 128.234375 -128.503906 126.605469 -128.503906 Z M 126.605469 -128.503906 "/></g></g></g><g fill="#000000" fill-opacity="1"><g transform="translate(683.848499, 362.459127)"><g><path d="M 103.019531 -40.394531 L 41.480469 -40.394531 L 41.480469 -89.195312 L 126.605469 -89.195312 C 128.234375 -89.195312 129.589844 -90.550781 129.589844 -91.632812 L 129.589844 -126.066406 C 129.589844 -127.421875 128.234375 -128.503906 126.605469 -128.503906 L 41.480469 -128.503906 L 41.480469 -177.574219 L 103.019531 -177.574219 L 103.019531 -216.886719 L 2.980469 -216.886719 C 1.355469 -216.886719 0 -215.53125 0 -214.445312 L 0 -2.441406 C 0 -1.355469 1.355469 0 2.980469 0 L 103.019531 0 Z M 103.019531 -40.394531 "/></g></g></g><g fill="#000000" fill-opacity="1"><g transform="translate(819.94431, 362.459127)"><g><path d="M 103.019531 -40.394531 L 41.480469 -40.394531 L 41.480469 -89.195312 L 126.605469 -89.195312 C 128.234375 -89.195312 129.589844 -90.550781 129.589844 -91.632812 L 129.589844 -126.066406 C 129.589844 -127.421875 128.234375 -128.503906 126.605469 -128.503906 L 41.480469 -128.503906 L 41.480469 -177.574219 L 103.019531 -177.574219 L 103.019531 -216.886719 L 2.980469 -216.886719 C 1.355469 -216.886719 0 -215.53125 0 -214.445312 L 0 -2.441406 C 0 -1.355469 1.355469 0 2.980469 0 L 103.019531 0 Z M 103.019531 -40.394531 "/></g></g></g><g fill="#000000" fill-opacity="1"><g transform="translate(15.756197, 98.750401)"><g><path d="M 15.984375 -54.375 C 21.242188 -54.375 23.875 -52.023438 23.875 -47.328125 L 23.875 -7.046875 C 23.875 -2.347656 21.242188 0 15.984375 0 L 10.890625 0 C 8.191406 0 6.210938 -0.59375 4.953125 -1.78125 C 3.703125 -2.96875 3.078125 -4.722656 3.078125 -7.046875 L 3.078125 -47.328125 C 3.078125 -52.023438 5.679688 -54.375 10.890625 -54.375 Z M 17.03125 -46.546875 C 17.03125 -47.484375 16.820312 -48.160156 16.40625 -48.578125 C 15.988281 -48.992188 15.289062 -49.203125 14.3125 -49.203125 L 12.5625 -49.203125 C 11.632812 -49.203125 10.957031 -48.992188 10.53125 -48.578125 C 10.113281 -48.160156 9.90625 -47.484375 9.90625 -46.546875 L 9.90625 -7.75 C 9.90625 -6.8125 10.113281 -6.144531 10.53125 -5.75 C 10.957031 -5.363281 11.632812 -5.171875 12.5625 -5.171875 L 14.3125 -5.171875 C 15.289062 -5.171875 15.988281 -5.363281 16.40625 -5.75 C 16.820312 -6.144531 17.03125 -6.8125 17.03125 -7.75 Z M 17.03125 -46.546875 "/></g></g></g><g fill="#000000" fill-opacity="1"><g transform="translate(42.627482, 98.750401)"><g><path d="M 18 -54.375 L 24.84375 -54.375 L 24.84375 -7.046875 C 24.84375 -2.347656 22.238281 0 17.03125 0 L 11.09375 0 C 5.832031 0 3.203125 -2.347656 3.203125 -7.046875 L 3.203125 -54.375 L 10.046875 -54.375 L 10.046875 -7.75 C 10.046875 -6.863281 10.253906 -6.210938 10.671875 -5.796875 C 11.097656 -5.378906 11.753906 -5.171875 12.640625 -5.171875 L 15.421875 -5.171875 C 16.359375 -5.171875 17.019531 -5.378906 17.40625 -5.796875 C 17.800781 -6.210938 18 -6.863281 18 -7.75 Z M 18 -54.375 "/></g></g></g><g fill="#000000" fill-opacity="1"><g transform="translate(70.685279, 98.750401)"><g><path d="M 18.5625 0 L 13.609375 -17.03125 L 10.1875 -17.03125 L 10.1875 0 L 3.34375 0 L 3.34375 -54.375 L 16.609375 -54.375 C 21.816406 -54.375 24.421875 -52.023438 24.421875 -47.328125 L 24.421875 -24.078125 C 24.421875 -20.640625 23.023438 -18.453125 20.234375 -17.515625 L 25.890625 0 Z M 10.1875 -49.203125 L 10.1875 -21.984375 L 14.859375 -21.984375 C 15.835938 -21.984375 16.535156 -22.191406 16.953125 -22.609375 C 17.378906 -23.035156 17.59375 -23.710938 17.59375 -24.640625 L 17.59375 -46.546875 C 17.59375 -47.484375 17.378906 -48.160156 16.953125 -48.578125 C 16.535156 -48.992188 15.835938 -49.203125 14.859375 -49.203125 Z M 10.1875 -49.203125 "/></g></g></g><g fill="#000000" fill-opacity="1"><g transform="translate(97.067997, 98.750401)"><g/></g></g><g fill="#000000" fill-opacity="1"><g transform="translate(107.746711, 98.750401)"><g><path d="M 9.703125 0 C 7.191406 0 5.375 -0.53125 4.25 -1.59375 C 3.132812 -2.664062 2.578125 -4.226562 2.578125 -6.28125 L 2.578125 -16.1875 L 9.421875 -16.1875 L 9.421875 -7.046875 C 9.421875 -6.304688 9.546875 -5.804688 9.796875 -5.546875 C 10.054688 -5.296875 10.535156 -5.171875 11.234375 -5.171875 L 14.59375 -5.171875 C 15.289062 -5.171875 15.765625 -5.296875 16.015625 -5.546875 C 16.273438 -5.804688 16.40625 -6.304688 16.40625 -7.046875 L 16.40625 -22.203125 C 16.40625 -22.898438 16.273438 -23.375 16.015625 -23.625 C 15.765625 -23.882812 15.289062 -24.015625 14.59375 -24.015625 L 9.90625 -24.015625 C 7.257812 -24.015625 5.351562 -24.617188 4.1875 -25.828125 C 3.019531 -27.035156 2.4375 -28.800781 2.4375 -31.125 L 2.4375 -47.328125 C 2.4375 -52.023438 5.046875 -54.375 10.265625 -54.375 L 15.359375 -54.375 C 20.566406 -54.375 23.171875 -52.023438 23.171875 -47.328125 L 23.171875 -36.21875 L 16.328125 -36.21875 L 16.328125 -46.546875 C 16.328125 -47.484375 16.128906 -48.160156 15.734375 -48.578125 C 15.335938 -48.992188 14.675781 -49.203125 13.75 -49.203125 L 11.859375 -49.203125 C 10.929688 -49.203125 10.269531 -48.992188 9.875 -48.578125 C 9.476562 -48.160156 9.28125 -47.484375 9.28125 -46.546875 L 9.28125 -31.546875 C 9.28125 -30.660156 9.488281 -30.007812 9.90625 -29.59375 C 10.332031 -29.175781 10.984375 -28.96875 11.859375 -28.96875 L 16.46875 -28.96875 C 18.882812 -28.96875 20.617188 -28.441406 21.671875 -27.390625 C 22.722656 -26.347656 23.25 -24.78125 23.25 -22.6875 L 23.25 -6.28125 C 23.25 -4.226562 22.6875 -2.664062 21.5625 -1.59375 C 20.445312 -0.53125 18.65625 0 16.1875 0 Z M 9.703125 0 "/></g></g></g><g fill="#000000" fill-opacity="1"><g transform="translate(133.431484, 98.750401)"><g><path d="M 16.75 -18.984375 L 22.125 -54.375 L 30.296875 -54.375 L 30.296875 0 L 24.078125 0 L 24.078125 -42.15625 L 19.609375 -12.90625 L 13.953125 -12.90625 L 9.5625 -42.015625 L 9.5625 0 L 3.34375 0 L 3.34375 -54.375 L 11.453125 -54.375 Z M 16.75 -18.984375 "/></g></g></g><g fill="#000000" fill-opacity="1"><g transform="translate(167.282326, 98.750401)"><g><path d="M 26.65625 0 L 19.75 0 L 18.21875 -10.125 L 8.796875 -10.125 L 7.328125 0 L 0.5625 0 L 10.609375 -54.375 L 16.1875 -54.375 Z M 13.46875 -41.953125 L 9.5625 -15.21875 L 17.453125 -15.21875 Z M 13.46875 -41.953125 "/></g></g></g><g fill="#000000" fill-opacity="1"><g transform="translate(194.4328, 98.750401)"><g><path d="M 18.5625 0 L 13.609375 -17.03125 L 10.1875 -17.03125 L 10.1875 0 L 3.34375 0 L 3.34375 -54.375 L 16.609375 -54.375 C 21.816406 -54.375 24.421875 -52.023438 24.421875 -47.328125 L 24.421875 -24.078125 C 24.421875 -20.640625 23.023438 -18.453125 20.234375 -17.515625 L 25.890625 0 Z M 10.1875 -49.203125 L 10.1875 -21.984375 L 14.859375 -21.984375 C 15.835938 -21.984375 16.535156 -22.191406 16.953125 -22.609375 C 17.378906 -23.035156 17.59375 -23.710938 17.59375 -24.640625 L 17.59375 -46.546875 C 17.59375 -47.484375 17.378906 -48.160156 16.953125 -48.578125 C 16.535156 -48.992188 15.835938 -49.203125 14.859375 -49.203125 Z M 10.1875 -49.203125 "/></g></g></g><g fill="#000000" fill-opacity="1"><g transform="translate(220.815518, 98.750401)"><g><path d="M 20.171875 -54.375 L 20.171875 -49.203125 L 13.6875 -49.203125 L 13.6875 0 L 6.84375 0 L 6.84375 -49.203125 L 0.34375 -49.203125 L 0.34375 -54.375 Z M 20.171875 -54.375 "/></g></g></g><g fill="#000000" fill-opacity="1"><g transform="translate(241.33538, 98.750401)"><g/></g></g><g fill="#000000" fill-opacity="1"><g transform="translate(252.014094, 98.750401)"><g><path d="M 24.21875 -34.484375 L 17.375 -34.484375 L 17.375 -46.90625 C 17.375 -47.832031 17.175781 -48.492188 16.78125 -48.890625 C 16.382812 -49.285156 15.722656 -49.484375 14.796875 -49.484375 L 12.359375 -49.484375 C 11.472656 -49.484375 10.816406 -49.285156 10.390625 -48.890625 C 9.972656 -48.492188 9.765625 -47.832031 9.765625 -46.90625 L 9.765625 -7.40625 C 9.765625 -6.46875 9.972656 -5.800781 10.390625 -5.40625 C 10.816406 -5.007812 11.472656 -4.8125 12.359375 -4.8125 L 14.796875 -4.8125 C 15.722656 -4.8125 16.382812 -5.007812 16.78125 -5.40625 C 17.175781 -5.800781 17.375 -6.46875 17.375 -7.40625 L 17.375 -19.75 L 24.21875 -19.75 L 24.21875 -7.046875 C 24.21875 -2.304688 21.585938 0.0625 16.328125 0.0625 L 10.8125 0.0625 C 5.601562 0.0625 3 -2.304688 3 -7.046875 L 3 -47.328125 C 3 -52.023438 5.601562 -54.375 10.8125 -54.375 L 16.328125 -54.375 C 21.585938 -54.375 24.21875 -52.023438 24.21875 -47.328125 Z M 24.21875 -34.484375 "/></g></g></g><g fill="#000000" fill-opacity="1"><g transform="translate(278.46657, 98.750401)"><g><path d="M 26.65625 0 L 19.75 0 L 18.21875 -10.125 L 8.796875 -10.125 L 7.328125 0 L 0.5625 0 L 10.609375 -54.375 L 16.1875 -54.375 Z M 13.46875 -41.953125 L 9.5625 -15.21875 L 17.453125 -15.21875 Z M 13.46875 -41.953125 "/></g></g></g><g fill="#000000" fill-opacity="1"><g transform="translate(305.617043, 98.750401)"><g><path d="M 21.421875 -54.375 L 21.421875 -49.203125 L 10.125 -49.203125 L 10.125 -29.875 L 19.328125 -29.875 L 19.328125 -24.921875 L 10.125 -24.921875 L 10.125 0 L 3.34375 0 L 3.34375 -54.375 Z M 21.421875 -54.375 "/></g></g></g><g fill="#000000" fill-opacity="1"><g transform="translate(328.021416, 98.750401)"><g><path d="M 10.125 -24.984375 L 10.125 -5.171875 L 22.0625 -5.171875 L 22.0625 0 L 3.34375 0 L 3.34375 -54.375 L 21.5 -54.375 L 21.5 -49.203125 L 10.125 -49.203125 L 10.125 -30.15625 L 19.828125 -30.15625 L 19.828125 -24.984375 Z M 7.390625 -56.609375 L 13.46875 -66.234375 L 20.59375 -66.234375 L 12.484375 -56.609375 Z M 7.390625 -56.609375 "/></g></g></g><g fill="#000000" fill-opacity="1"><g transform="translate(15.756197, 728.464153)"><g><path d="M 68.359375 -211.289062 L 68.359375 -3.730469 C 68.359375 -2.070312 70.015625 0 72.917969 0 L 126.359375 0 C 129.261719 0 131.332031 -2.070312 131.332031 -3.730469 L 131.332031 -211.289062 Z M 4.558594 -274.679688 L 194.71875 -274.679688 C 197.617188 -274.679688 199.277344 -276.335938 199.277344 -278.40625 L 199.277344 -327.707031 C 199.277344 -329.363281 197.617188 -331.4375 194.71875 -331.4375 L 4.558594 -331.4375 C 2.070312 -331.4375 0 -329.363281 0 -327.707031 L 0 -278.40625 C 0 -276.335938 2.070312 -274.679688 4.558594 -274.679688 Z M 4.558594 -274.679688 "/></g></g></g><g fill="#000000" fill-opacity="1"><g transform="translate(224.975116, 728.464153)"><g><path d="M 157.433594 -61.730469 L 63.386719 -61.730469 L 63.386719 -136.304688 L 193.476562 -136.304688 C 195.960938 -136.304688 198.035156 -138.375 198.035156 -140.03125 L 198.035156 -192.648438 C 198.035156 -194.71875 195.960938 -196.375 193.476562 -196.375 L 63.386719 -196.375 L 63.386719 -271.363281 L 157.433594 -271.363281 L 157.433594 -331.4375 L 4.558594 -331.4375 C 2.070312 -331.4375 0 -329.363281 0 -327.707031 L 0 -3.730469 C 0 -2.070312 2.070312 0 4.558594 0 L 157.433594 0 Z M 157.433594 -61.730469 "/></g></g></g><g fill="#000000" fill-opacity="1"><g transform="translate(432.951147, 728.464153)"><g><path d="M 189.332031 -60.902344 C 149.144531 -59.246094 63.800781 -63.386719 63.800781 -165.71875 C 63.800781 -244.433594 117.246094 -274.679688 189.332031 -270.949219 L 189.332031 -197.617188 L 252.71875 -197.617188 L 252.71875 -327.707031 C 252.71875 -329.363281 251.0625 -331.4375 248.164062 -331.4375 L 194.304688 -331.4375 C 113.101562 -331.4375 0 -312.792969 0 -165.71875 C 0 -24.027344 111.859375 0 194.304688 0 L 248.164062 0 C 251.0625 0 252.71875 -2.070312 252.71875 -3.730469 L 252.71875 -60.902344 Z M 189.332031 -60.902344 "/></g></g></g><g fill="#000000" fill-opacity="1"><g transform="translate(698.514111, 728.464153)"><g><path d="M 63.386719 -187.675781 L 63.386719 -327.707031 C 63.386719 -329.363281 61.730469 -331.4375 58.828125 -331.4375 L 4.558594 -331.4375 C 2.070312 -331.4375 0 -329.363281 0 -327.707031 L 0 -187.675781 Z M 247.75 -331.4375 L 193.476562 -331.4375 C 190.992188 -331.4375 188.917969 -329.363281 188.917969 -327.707031 L 188.917969 -123.875 L 63.386719 -123.875 L 63.386719 -124.289062 L 0 -124.289062 L 0 -3.730469 C 0 -2.070312 2.070312 0 4.558594 0 L 58.828125 0 C 61.730469 0 63.386719 -2.070312 63.386719 -3.730469 L 63.386719 -62.144531 L 188.917969 -62.144531 L 188.917969 -3.730469 C 188.917969 -2.070312 190.992188 0 193.476562 0 L 247.75 0 C 250.648438 0 252.304688 -2.070312 252.304688 -3.730469 L 252.304688 -327.707031 C 252.304688 -329.363281 250.648438 -331.4375 247.75 -331.4375 Z M 247.75 -331.4375 "/></g></g></g></svg>